<?xml version="1.0" encoding="iso-8859-1"?>
<!-- Uploaded to: SVG Repo, www.svgrepo.com, Generator: SVG Repo Mixer Tools -->
<svg version="1.1" id="Layer_1" xmlns="http://www.w3.org/2000/svg" xmlns:xlink="http://www.w3.org/1999/xlink" 
	 viewBox="0 0 512.003 512.003" xml:space="preserve">
<rect x="163.671" y="104.968" style="fill:#EEBF00;" width="184.662" height="302.057"/>
<rect y="196.829" style="fill:#DFDFE2;" width="163.671" height="210.196"/>
<rect x="348.333" y="223.084" style="fill:#E8A554;" width="163.671" height="183.952"/>
<path style="opacity:0.2;enable-background:new    ;" d="M491.587,223.081v107.143c0,31.145-25.247,56.392-56.392,56.392h-86.865
	v20.413H512V223.081H491.587z"/>
<path style="opacity:0.2;enable-background:new    ;" d="M143.257,196.834v133.39c0,31.145-25.247,56.392-56.392,56.392H0v20.413
	h163.67V196.834H143.257z"/>
<polygon style="fill:#FFEB99;" points="246.025,233.297 228.431,233.297 228.431,260.34 246.025,260.34 246.025,335.602 
	273.067,335.602 273.067,260.34 273.067,233.297 "/>
<path style="fill:#FFFFFF;" d="M112.454,275.868c0-8.478-6.873-15.351-15.351-15.351H85.411H51.216v27.042h26.978
	c3.431,0,5.753,3.493,4.428,6.657l-28.755,68.605h22.87h4.172h15.773h15.773v-27.042H96.682h-4.438l17.998-42.941
	c1.461-3.485,2.213-7.225,2.213-11.003v-5.967H112.454z"/>
<polygon style="fill:#A87429;" points="415.032,305.877 415.032,324.233 428.481,324.233 428.481,339.165 406.358,339.165 
	406.358,366.208 428.481,366.208 451.327,366.208 455.524,366.208 455.524,290.944 455.524,263.902 428.481,263.902 
	404.807,263.902 404.807,290.944 428.481,290.944 428.481,305.877 "/>
<path style="fill:#FFEB99;" d="M191.783,204.667c-4.326,0-7.833-3.506-7.833-7.833v-62.306c0-4.327,3.507-7.833,7.833-7.833h51.905
	c4.326,0,7.833,3.506,7.833,7.833c0,4.327-3.507,7.833-7.833,7.833h-44.073v54.473C199.616,201.161,196.109,204.667,191.783,204.667
	z"/>
<path style="opacity:0.27;fill:#664400;enable-background:new    ;" d="M327.665,104.971v222.394
	c0,32.584-26.414,58.997-58.997,58.997H163.67v20.666h184.661V104.971H327.665z"/>
</svg>